<svg xmlns="http://www.w3.org/2000/svg" xmlns:xlink="http://www.w3.org/1999/xlink" width="562" zoomAndPan="magnify" viewBox="0 0 421.5 48.75" height="65" preserveAspectRatio="xMidYMid meet" version="1.0"><defs><clipPath id="396cdc6ed7"><path d="M 83.121094 5.621094 L 333.835938 5.621094 L 333.835938 42.183594 L 83.121094 42.183594 Z M 83.121094 5.621094 " clip-rule="nonzero"/></clipPath></defs><g clip-path="url(#396cdc6ed7)"><path fill="#000000" d="M 330.070312 7.449219 C 330.050781 7.457031 330.027344 7.46875 330.007812 7.480469 C 329.535156 7.390625 329.054688 7.308594 328.53125 7.25 C 327.859375 7.171875 327.1875 7.097656 326.519531 7.007812 C 324.90625 6.796875 323.308594 6.558594 321.683594 6.476562 C 318.875 6.332031 316.070312 6.195312 313.261719 6.070312 C 307.574219 5.820312 301.898438 5.667969 296.203125 5.667969 C 284.902344 5.667969 273.589844 6.03125 262.332031 7.085938 C 256 7.679688 249.6875 8.503906 243.417969 9.589844 C 241.847656 9.859375 240.339844 10.625 239.332031 11.886719 C 238.765625 12.589844 237.941406 14.253906 239.148438 14.824219 C 243.054688 16.664062 247.023438 18.179688 251.089844 19.386719 C 240 19.203125 228.910156 19.308594 217.824219 19.648438 C 189.597656 20.503906 161.425781 22.84375 133.371094 26.007812 C 126.464844 26.789062 119.570312 27.605469 112.671875 28.449219 C 109.148438 28.882812 105.621094 29.324219 102.097656 29.765625 C 100.570312 29.960938 98.960938 30.011719 97.496094 30.488281 C 95.554688 31.117188 93.667969 31.816406 91.816406 32.667969 C 90.324219 33.355469 88.84375 34.078125 87.339844 34.757812 C 85.828125 35.441406 84.320312 36.503906 83.660156 38.09375 C 83.117188 39.398438 83.496094 40.25 84.816406 40.589844 C 86.332031 40.980469 87.820312 41.417969 89.378906 41.609375 C 91.476562 41.863281 93.554688 41.953125 95.660156 42.027344 C 97.652344 42.097656 99.613281 41.773438 101.582031 41.53125 C 108.515625 40.683594 115.453125 39.859375 122.394531 39.0625 C 150.324219 35.867188 178.328125 33.070312 206.414062 31.710938 C 220.914062 31.003906 235.433594 30.6875 249.953125 30.882812 C 256.867188 30.972656 263.78125 31.1875 270.6875 31.515625 C 277.664062 31.84375 284.636719 32.191406 291.617188 31.730469 C 295.132812 31.496094 298.558594 31.066406 301.96875 30.191406 C 303.804688 29.722656 305.277344 26.757812 305.675781 25.121094 C 305.996094 23.789062 306.417969 20.96875 304.6875 20.335938 C 296.75 17.433594 288.328125 16.214844 279.949219 15.5 C 275.882812 15.152344 271.8125 14.890625 267.75 14.503906 C 263.5 14.097656 259.148438 13.722656 254.910156 12.917969 C 263.476562 11.914062 272.097656 11.332031 280.71875 11.042969 C 287.558594 10.8125 294.394531 10.816406 301.238281 10.8125 C 304.558594 10.808594 307.878906 10.753906 311.199219 10.75 C 314.59375 10.75 318.019531 10.914062 321.40625 10.71875 C 323.648438 10.589844 325.890625 10.496094 328.132812 10.410156 C 329.519531 10.355469 331.164062 10.359375 332.484375 10.011719 C 333 9.875 333.6875 9.582031 333.730469 8.964844 C 333.839844 7.398438 331.085938 6.988281 330.070312 7.449219 " fill-opacity="1" fill-rule="nonzero"/></g></svg>