<svg xmlns="http://www.w3.org/2000/svg" xmlns:xlink="http://www.w3.org/1999/xlink" width="562" zoomAndPan="magnify" viewBox="0 0 421.5 48.75" height="65" preserveAspectRatio="xMidYMid meet" version="1.0"><defs><clipPath id="f57626505c"><path d="M 41 9 L 357 9 L 357 37 L 41 37 Z M 41 9 " clip-rule="nonzero"/></clipPath><clipPath id="d0915b939e"><path d="M 39.820312 10.289062 L 354.953125 -7.425781 L 357.339844 35.039062 L 42.207031 52.753906 Z M 39.820312 10.289062 " clip-rule="nonzero"/></clipPath><clipPath id="daa7857586"><path d="M 39.820312 10.289062 L 354.953125 -7.425781 L 357.339844 35.039062 L 42.207031 52.753906 Z M 39.820312 10.289062 " clip-rule="nonzero"/></clipPath><clipPath id="6a9a163072"><path d="M 39.820312 10.289062 L 354.953125 -7.425781 L 357.339844 35.039062 L 42.207031 52.753906 Z M 39.820312 10.289062 " clip-rule="nonzero"/></clipPath></defs><g clip-path="url(#f57626505c)"><g clip-path="url(#d0915b939e)"><g clip-path="url(#daa7857586)"><g clip-path="url(#6a9a163072)"><path fill="#000000" d="M 355.554688 23.5625 C 354.34375 22.84375 352.652344 23.910156 351.75 24.84375 C 351.109375 25.503906 349.710938 24.8125 348.953125 24.765625 C 347.910156 24.699219 346.882812 24.765625 345.832031 24.644531 C 343.859375 24.417969 341.910156 24.042969 339.957031 23.546875 C 336.0625 22.554688 332.160156 21.285156 328.207031 20.925781 C 326.070312 20.730469 323.871094 20.851562 321.796875 21.484375 C 319.238281 22.265625 317.019531 24.097656 314.5625 25.214844 C 312.960938 25.941406 311.160156 26.121094 309.601562 24.960938 C 308.148438 23.878906 308.117188 21.632812 307.015625 20.117188 C 304.90625 17.207031 301.535156 19.683594 299.308594 20.800781 C 297.113281 21.902344 294.910156 22.972656 292.734375 24.121094 C 292.210938 21.953125 291.238281 20.066406 289.703125 18.511719 C 287.417969 16.195312 284.4375 15.238281 281.636719 15.238281 C 278.132812 15.234375 274.703125 16.238281 271.277344 16.949219 C 267.722656 17.6875 264.15625 18.335938 260.578125 18.890625 C 246.8125 21.015625 232.878906 22.101562 218.992188 22.722656 C 191.386719 23.957031 163.710938 22.558594 136.078125 22.917969 C 128.375 23.023438 120.683594 23.324219 113.003906 23.859375 C 105.613281 24.375 98.070312 24.710938 90.816406 26.535156 C 89.855469 23.105469 88.835938 19.695312 87.761719 16.316406 C 87.230469 14.648438 86.804688 12.722656 85.792969 11.417969 C 84.617188 9.894531 82.953125 9.808594 81.46875 10.371094 C 78.199219 11.609375 75.699219 15.5625 73.277344 18.449219 C 71.691406 20.339844 70.101562 22.226562 68.515625 24.117188 C 66.640625 19.488281 64.765625 14.785156 62.535156 10.476562 C 61.886719 9.230469 59.878906 9.285156 59.078125 10.101562 C 52.285156 17.039062 45.871094 24.773438 41.804688 34.894531 C 41.25 36.277344 43.917969 37.164062 44.464844 36.113281 C 48.640625 28.089844 53.386719 20.324219 59.335938 14.441406 C 60.78125 20.085938 62.628906 25.621094 64.335938 31.121094 C 64.957031 33.125 67.980469 31.164062 68.597656 30.476562 C 72.625 26.007812 76.433594 21.179688 80.371094 16.574219 C 80.402344 16.539062 80.4375 16.5 80.46875 16.460938 C 80.507812 16.507812 80.558594 16.554688 80.617188 16.605469 C 80.621094 17.144531 81.21875 18.109375 81.371094 18.710938 C 81.832031 20.539062 82.242188 22.394531 82.691406 24.230469 C 83.640625 28.09375 84.632812 31.945312 85.667969 35.777344 C 85.90625 36.296875 86.253906 36.601562 86.710938 36.683594 C 93.679688 36.773438 100.613281 35.785156 107.570312 35.378906 C 114.335938 34.984375 121.109375 34.816406 127.886719 34.675781 C 141.484375 34.390625 155.097656 34.609375 168.710938 34.808594 C 195.707031 35.199219 222.933594 35.917969 249.636719 31.304688 C 257.480469 29.949219 265.277344 28.234375 273 26.097656 C 276.105469 25.238281 279.695312 24.109375 282.835938 25.738281 C 283.984375 26.332031 285.175781 27.449219 285.960938 28.703125 C 286.410156 29.421875 286.8125 30.292969 287.042969 31.164062 C 287.101562 31.382812 287.101562 31.730469 287.144531 31.914062 C 287.386719 32.949219 287.875 33.484375 288.449219 34.269531 C 288.867188 34.582031 289.300781 34.652344 289.757812 34.484375 C 292.472656 33.113281 295.117188 31.53125 297.777344 30 C 298.808594 29.40625 300.042969 28.289062 301.160156 28.0625 C 302.1875 27.859375 302.289062 29.324219 302.589844 30.386719 C 304.355469 36.617188 309.402344 37.527344 313.628906 35.394531 C 315.894531 34.25 317.902344 32.363281 320.242188 31.464844 C 322.175781 30.722656 324.171875 30.574219 326.195312 30.714844 C 330.308594 31.003906 334.339844 32.53125 338.410156 33.371094 C 340.742188 33.851562 343.152344 34.167969 345.480469 33.710938 C 347.269531 33.355469 348.929688 32.082031 350.492188 30.972656 C 352.261719 29.71875 353.960938 28.351562 355.484375 26.628906 C 356.238281 25.773438 356.734375 24.269531 355.554688 23.5625 " fill-opacity="1" fill-rule="nonzero"/></g></g></g></g></svg>