<svg xmlns="http://www.w3.org/2000/svg" xmlns:xlink="http://www.w3.org/1999/xlink" width="562" zoomAndPan="magnify" viewBox="0 0 421.5 48.75" height="65" preserveAspectRatio="xMidYMid meet" version="1.0"><defs><clipPath id="9be1dd9bf7"><path d="M 17.574219 19.1875 L 403 19.1875 L 403 29.632812 L 17.574219 29.632812 Z M 17.574219 19.1875 " clip-rule="nonzero"/></clipPath></defs><g clip-path="url(#9be1dd9bf7)"><path fill="#000000" d="M 402.117188 21.929688 C 401.460938 21.566406 400.433594 21.320312 399.644531 21.425781 C 399.023438 21.507812 398.40625 21.601562 397.785156 21.671875 C 398.023438 21.644531 399.011719 21.667969 397.261719 21.703125 C 396.75 21.710938 396.238281 21.722656 395.730469 21.714844 C 393.867188 21.683594 392.007812 21.492188 390.175781 21.222656 C 387.070312 20.769531 383.878906 20.9375 380.730469 20.945312 C 374.320312 20.964844 367.929688 21.234375 361.527344 21.433594 C 348.882812 21.824219 336.21875 22.152344 323.5625 22.21875 C 298.234375 22.359375 272.871094 21.878906 247.550781 22.300781 C 235.199219 22.507812 222.894531 23.480469 210.53125 23.585938 C 197.949219 23.695312 185.367188 23.480469 172.785156 23.832031 C 166.417969 24.011719 160.050781 24.246094 153.683594 24.386719 C 147.527344 24.519531 141.382812 24.519531 135.234375 24.828125 C 122.847656 25.445312 110.378906 25.285156 97.96875 25.355469 C 91.910156 25.390625 85.84375 25.667969 79.785156 25.644531 C 76.863281 25.636719 74.003906 25.121094 71.082031 25.164062 C 68.210938 25.199219 65.417969 25.347656 62.554688 25.082031 C 59.714844 24.816406 57.011719 24.921875 54.171875 24.921875 C 51.410156 24.929688 48.671875 24.421875 45.890625 24.390625 C 44.515625 24.375 43.183594 24.300781 41.816406 24.152344 C 40.167969 23.96875 38.535156 24.113281 36.890625 24.007812 C 34.246094 23.832031 31.449219 23.421875 28.855469 22.964844 C 27.625 22.75 26.621094 22.460938 25.671875 21.765625 C 24.832031 21.148438 24.144531 20.480469 23.175781 19.988281 C 22.101562 19.441406 18.148438 19.871094 17.769531 21.082031 C 17.734375 21.1875 17.703125 21.300781 17.667969 21.414062 C 17.554688 21.769531 18.015625 21.960938 18.71875 22.015625 C 20.113281 22.976562 21.148438 24.140625 23.011719 24.65625 C 25.597656 25.375 28.449219 25.613281 31.128906 26.023438 C 32.46875 26.226562 33.777344 26.3125 35.140625 26.328125 C 36.722656 26.347656 38.253906 26.644531 39.832031 26.75 C 42.621094 26.941406 45.320312 27.140625 48.09375 27.449219 C 50.925781 27.761719 53.777344 27.433594 56.613281 27.753906 C 59.613281 28.089844 62.492188 28.21875 65.519531 28.21875 C 68.367188 28.21875 71.085938 28.691406 73.910156 28.878906 C 76.878906 29.074219 79.875 28.949219 82.847656 28.988281 C 95.375 29.152344 107.910156 29.1875 120.441406 29.296875 C 126.875 29.355469 133.289062 28.875 139.726562 28.921875 C 146.019531 28.96875 152.316406 28.914062 158.609375 28.8125 C 183.921875 28.410156 209.214844 29.289062 234.507812 28.246094 C 247.25 27.722656 260.074219 28.113281 272.824219 28.121094 C 285.566406 28.125 298.300781 28.128906 311.039062 28.160156 C 323.644531 28.1875 336.253906 28.097656 348.84375 27.488281 C 355.015625 27.1875 361.191406 26.851562 367.355469 26.433594 C 370.355469 26.226562 373.347656 25.941406 376.347656 25.730469 C 378.316406 25.59375 380.285156 25.46875 382.253906 25.339844 C 384.570312 25.183594 386.78125 24.546875 389.0625 24.207031 C 393.5 23.542969 397.972656 23.175781 402.457031 22.796875 C 403.3125 22.726562 402.359375 22.0625 402.117188 21.929688 " fill-opacity="1" fill-rule="nonzero"/></g></svg>