<svg xmlns="http://www.w3.org/2000/svg" xmlns:xlink="http://www.w3.org/1999/xlink" width="562" zoomAndPan="magnify" viewBox="0 0 421.5 48.75" height="65" preserveAspectRatio="xMidYMid meet" version="1.0"><defs><clipPath id="49960a02af"><path d="M 51 1.570312 L 363 1.570312 L 363 34 L 51 34 Z M 51 1.570312 " clip-rule="nonzero"/></clipPath></defs><g clip-path="url(#49960a02af)"><path fill="#000000" d="M 362.800781 7.539062 C 362.503906 5.257812 361.058594 1.804688 358.164062 1.695312 L 358.164062 1.667969 C 353.570312 1.757812 348.988281 2.835938 344.382812 3.183594 C 339.402344 3.558594 334.402344 3.660156 329.40625 3.707031 C 319.789062 3.808594 310.195312 3.945312 300.589844 4.367188 C 281.078125 5.222656 261.613281 6.78125 242.15625 8.292969 C 203.234375 11.308594 164.769531 16.441406 126.15625 21.59375 C 114.988281 23.089844 103.796875 24.574219 92.59375 25.863281 C 81.0625 27.195312 69.527344 27.980469 57.972656 29 C 57.898438 28.980469 57.824219 28.972656 57.765625 28.972656 C 55.855469 28.988281 54.160156 28.949219 52.378906 29.59375 C 50.203125 30.378906 50.808594 32.242188 53.054688 32.46875 C 63.390625 33.519531 74.128906 33.207031 84.515625 32.929688 C 94.730469 32.65625 104.894531 32.347656 115.085938 31.667969 C 135.179688 30.328125 155.203125 28.476562 175.25 26.679688 C 214.230469 23.183594 253.523438 20.777344 292.683594 19.550781 C 303.859375 19.203125 315.027344 19.113281 326.203125 19.210938 C 331.695312 19.257812 337.199219 19.292969 342.683594 19.03125 C 347.5 18.804688 354.421875 19.03125 358.671875 16.851562 C 362.214844 15.039062 363.242188 10.9375 362.800781 7.539062 " fill-opacity="1" fill-rule="nonzero"/></g><path fill="#000000" d="M 368.722656 26.984375 C 362.097656 24.476562 353.171875 26.011719 346.089844 26.34375 C 339.242188 26.664062 332.402344 27.078125 325.566406 27.511719 C 311.480469 28.402344 297.429688 29.734375 283.332031 30.460938 C 267.398438 31.285156 251.667969 32.253906 235.804688 33.820312 C 220.804688 35.300781 206.011719 39.332031 190.933594 39.867188 C 188.292969 39.960938 188.703125 42.027344 191.066406 42.367188 C 197.160156 43.257812 203.21875 42.980469 209.335938 42.441406 C 216.726562 41.792969 224.128906 41.511719 231.546875 41.25 C 247.113281 40.703125 262.839844 41.480469 278.417969 41.605469 C 293.375 41.726562 308.339844 41.351562 323.277344 40.730469 C 330.945312 40.410156 338.609375 40.113281 346.28125 39.921875 C 349.808594 39.835938 353.332031 39.769531 356.859375 39.738281 C 361.375 39.699219 364.246094 40.140625 367.515625 37.011719 C 369.335938 35.269531 370.835938 33.25 370.976562 30.796875 C 371.050781 29.550781 370.617188 27.117188 368.722656 26.984375 " fill-opacity="1" fill-rule="nonzero"/></svg>