<svg xmlns="http://www.w3.org/2000/svg" xmlns:xlink="http://www.w3.org/1999/xlink" width="562" zoomAndPan="magnify" viewBox="0 0 421.5 48.75" height="65" preserveAspectRatio="xMidYMid meet" version="1.0"><defs><clipPath id="fa1ee0ada9"><path d="M 52 8.460938 L 343.941406 8.460938 L 343.941406 39 L 52 39 Z M 52 8.460938 " clip-rule="nonzero"/></clipPath></defs><g clip-path="url(#fa1ee0ada9)"><path fill="#000000" d="M 343.421875 18.527344 C 343.105469 16.910156 342.640625 15.347656 341.8125 13.984375 C 341.386719 13.21875 340.808594 12.515625 340.035156 11.910156 C 339.082031 11.125 338.050781 10.644531 336.910156 10.207031 C 333.382812 8.84375 329.972656 8.457031 326.226562 8.53125 C 315.675781 8.742188 305.125 9.09375 294.570312 9.335938 C 276.980469 9.746094 259.394531 10.175781 241.804688 10.613281 C 203.335938 11.574219 164.855469 12.910156 126.402344 14.378906 C 115.058594 14.808594 103.707031 15.042969 92.355469 15.335938 C 86.636719 15.484375 80.914062 15.652344 75.191406 15.820312 C 68.042969 16.03125 60.933594 15.898438 53.84375 16.925781 C 50.023438 17.480469 53.96875 22.027344 56.179688 21.585938 C 57.308594 21.363281 61.335938 22.511719 63.058594 22.597656 C 63.761719 22.628906 64.464844 22.652344 65.164062 22.683594 C 67.832031 22.8125 70.496094 22.953125 73.164062 23.082031 C 77.839844 23.308594 82.507812 23.605469 87.183594 23.871094 C 96.195312 24.375 105.210938 24.742188 114.222656 25.25 C 131.917969 26.25 149.589844 27.449219 167.296875 28.285156 C 201.941406 29.917969 236.5625 31.867188 271.21875 33.320312 C 281.460938 33.75 291.699219 34.28125 301.941406 34.761719 C 306.441406 34.972656 310.988281 35.011719 315.476562 35.445312 C 317.105469 35.605469 318.753906 35.839844 320.328125 36.304688 C 320.394531 36.339844 320.464844 36.382812 320.539062 36.429688 C 321.457031 36.972656 322.296875 37.441406 323.113281 38.144531 C 325.050781 39.808594 328.855469 38.453125 330.640625 37.507812 C 333.808594 35.824219 336.882812 32.558594 338.714844 29.558594 C 340.207031 27.113281 342.035156 23.457031 342.582031 19.929688 C 342.9375 21.054688 343.296875 22.175781 343.652344 23.300781 C 343.832031 21.699219 343.757812 20.109375 343.421875 18.527344 " fill-opacity="1" fill-rule="nonzero"/></g></svg>