<svg xmlns="http://www.w3.org/2000/svg" xmlns:xlink="http://www.w3.org/1999/xlink" width="562" zoomAndPan="magnify" viewBox="0 0 421.5 48.75" height="65" preserveAspectRatio="xMidYMid meet" version="1.0"><defs><clipPath id="1791848ac4"><path d="M 6 4 L 412 4 L 412 44.667969 L 6 44.667969 Z M 6 4 " clip-rule="nonzero"/></clipPath></defs><g clip-path="url(#1791848ac4)"><path fill="#000000" d="M 409.167969 12.367188 C 357.878906 7.558594 306.402344 4.734375 254.925781 4.226562 C 203.226562 3.71875 151.542969 5.347656 100.113281 9.160156 C 85.457031 10.246094 70.816406 11.480469 56.21875 13.003906 C 48.550781 13.804688 40.890625 14.667969 33.230469 15.535156 C 24.777344 16.492188 16.484375 17.863281 8.097656 19.125 C 5.660156 19.484375 6.582031 21.542969 8.761719 21.410156 C 15.363281 21.015625 21.917969 20.746094 28.503906 20.15625 C 35.121094 19.5625 41.742188 19.050781 48.367188 18.546875 C 61.179688 17.582031 74 16.695312 86.828125 15.898438 C 112.710938 14.296875 138.652344 13.207031 164.613281 12.605469 C 216.363281 11.410156 268.1875 12.328125 319.949219 15.035156 C 327.859375 15.445312 335.761719 15.914062 343.664062 16.425781 C 324.296875 17.691406 304.898438 18.6875 285.535156 20.046875 C 260.8125 21.78125 236.15625 24.054688 211.554688 26.675781 C 197.566406 27.46875 183.613281 28.539062 169.71875 29.945312 C 148.113281 32.125 126.671875 34.867188 105.382812 38.667969 C 102.5 39.027344 98.914062 44.605469 103.53125 44.136719 C 140.78125 40.347656 178.171875 37.246094 215.6875 35.730469 C 253.390625 34.207031 291.214844 34.46875 328.972656 36.363281 C 345.289062 37.183594 361.554688 38.378906 377.832031 39.714844 C 377.324219 40.660156 377.398438 41.589844 379.144531 41.542969 C 383.695312 41.414062 388.300781 42.074219 392.636719 40.710938 C 396.453125 39.507812 396.238281 30.894531 391.832031 30.414062 C 355.082031 26.417969 317.941406 24.890625 281.019531 24.847656 C 263.578125 24.828125 246.113281 25.136719 228.679688 25.847656 C 245.746094 24.273438 262.882812 23.09375 280.003906 22.023438 C 300.136719 20.765625 320.351562 19.710938 340.566406 19.667969 C 351.605469 19.644531 362.671875 19.863281 373.710938 20.257812 C 379.164062 20.457031 384.605469 21.054688 390.058594 21.289062 C 395.890625 21.53125 401.726562 21.601562 407.550781 21.59375 C 411.140625 21.585938 413.039062 12.726562 409.167969 12.367188 " fill-opacity="1" fill-rule="nonzero"/></g></svg>