<svg xmlns="http://www.w3.org/2000/svg" xmlns:xlink="http://www.w3.org/1999/xlink" width="562" zoomAndPan="magnify" viewBox="0 0 421.5 48.75" height="65" preserveAspectRatio="xMidYMid meet" version="1.0"><defs><clipPath id="2dbc404b4d"><path d="M 30 8 L 374 8 L 374 38 L 30 38 Z M 30 8 " clip-rule="nonzero"/></clipPath><clipPath id="9e4d65faeb"><path d="M 27.917969 15.472656 L 372.925781 -13.554688 L 376.867188 33.289062 L 31.859375 62.316406 Z M 27.917969 15.472656 " clip-rule="nonzero"/></clipPath><clipPath id="f9c9d3715e"><path d="M 27.917969 15.472656 L 372.925781 -13.554688 L 376.867188 33.289062 L 31.859375 62.316406 Z M 27.917969 15.472656 " clip-rule="nonzero"/></clipPath><clipPath id="7cb168b584"><path d="M 27.917969 15.472656 L 372.925781 -13.554688 L 376.867188 33.289062 L 31.859375 62.316406 Z M 27.917969 15.472656 " clip-rule="nonzero"/></clipPath></defs><g clip-path="url(#2dbc404b4d)"><g clip-path="url(#9e4d65faeb)"><g clip-path="url(#f9c9d3715e)"><g clip-path="url(#7cb168b584)"><path fill="#000000" d="M 345.550781 26.308594 C 331.167969 25.53125 316.738281 25.039062 302.277344 24.765625 C 297.597656 24.398438 292.914062 24.058594 288.222656 23.742188 C 299.734375 23.441406 311.246094 23.152344 322.757812 22.859375 C 330.386719 23.953125 337.984375 25.105469 345.550781 26.308594 Z M 356.789062 31.984375 C 290.910156 31.789062 224.984375 32.6875 158.941406 34.761719 C 141.152344 35.320312 123.019531 36.65625 105.351562 35.800781 C 103.617188 35.6875 101.882812 35.578125 100.148438 35.46875 C 97.328125 35.828125 96.488281 35.207031 97.578125 33.617188 C 104.5 33.199219 111.421875 32.78125 118.347656 32.363281 C 145.621094 30.734375 172.902344 29.179688 200.1875 28.050781 C 232.734375 26.699219 265.3125 25.976562 297.722656 26.457031 C 317.519531 27.871094 337.222656 29.726562 356.789062 31.984375 Z M 85.933594 32.28125 C 75.183594 32.914062 64.121094 33.980469 53.382812 33.554688 C 65.804688 31.824219 78.246094 30.328125 90.699219 29.046875 C 90.980469 29.398438 91.691406 29.664062 92.460938 29.59375 C 93.765625 29.472656 95.070312 29.355469 96.378906 29.234375 C 95.027344 29.757812 93.792969 30.339844 92.742188 31.003906 C 92.207031 31.339844 91.789062 31.65625 91.425781 31.960938 C 89.597656 32.066406 87.765625 32.175781 85.933594 32.28125 Z M 114.996094 22.742188 C 118.839844 22.183594 122.695312 21.664062 126.550781 21.191406 C 126.390625 21.285156 126.222656 21.378906 126.0625 21.472656 C 122.605469 21.914062 119.15625 22.398438 115.726562 22.9375 C 115.480469 22.878906 115.238281 22.804688 114.996094 22.742188 Z M 146.542969 17.273438 C 155.726562 15.675781 165.015625 14.449219 174.324219 13.507812 C 183.503906 12.578125 192.710938 11.964844 201.917969 11.570312 C 205.453125 11.707031 208.992188 11.863281 212.523438 12.035156 C 195.285156 12.871094 178.066406 14.339844 160.894531 16.617188 C 155.113281 16.917969 149.332031 17.320312 143.550781 17.816406 C 144.546875 17.628906 145.546875 17.445312 146.542969 17.273438 Z M 311.585938 15.410156 C 293.875 13.996094 275.984375 13.277344 258.007812 13.164062 C 256.472656 13.023438 254.941406 12.882812 253.410156 12.75 C 253.691406 12.753906 253.96875 12.746094 254.25 12.75 C 270.628906 12.78125 286.933594 13.28125 303.1875 14.046875 C 307.570312 14.453125 311.929688 14.917969 316.265625 15.433594 C 314.707031 15.425781 313.148438 15.414062 311.585938 15.410156 Z M 262.410156 24.414062 C 263.429688 24.460938 264.445312 24.507812 265.464844 24.554688 C 260.476562 24.585938 255.480469 24.648438 250.488281 24.726562 C 254.464844 24.621094 258.4375 24.515625 262.410156 24.414062 Z M 102.871094 29.835938 C 105.285156 29.191406 107.71875 28.582031 110.152344 27.984375 C 116.300781 27.429688 122.449219 26.878906 128.605469 26.339844 C 131.761719 26.503906 134.960938 26.546875 138.179688 26.507812 C 161.167969 26.925781 184.269531 26.484375 207.355469 25.878906 C 207.074219 25.894531 206.792969 25.902344 206.511719 25.910156 C 179.714844 26.921875 152.910156 28.367188 126.117188 29.917969 C 116.914062 30.449219 107.714844 31 98.515625 31.542969 C 99.191406 30.472656 100.347656 30.503906 102.871094 29.835938 Z M 140.949219 19.625 C 140.25 19.746094 139.550781 19.875 138.855469 19.996094 C 136.882812 20.203125 134.910156 20.417969 132.9375 20.644531 C 133.183594 20.546875 133.433594 20.457031 133.683594 20.363281 C 136.117188 20.097656 138.554688 19.851562 140.992188 19.617188 C 140.976562 19.621094 140.964844 19.625 140.949219 19.625 Z M 227.75 13.519531 C 212.84375 13.96875 197.929688 14.796875 183.035156 15.925781 C 182.921875 15.929688 182.804688 15.929688 182.6875 15.933594 C 198.496094 14.398438 214.371094 13.480469 230.222656 13.046875 C 231.65625 13.144531 233.089844 13.25 234.523438 13.347656 C 232.265625 13.398438 230.007812 13.453125 227.75 13.519531 Z M 266.910156 16.085938 C 235.269531 17.0625 203.582031 19.007812 171.902344 21.375 C 158.457031 21.765625 145.011719 22.394531 131.570312 23.273438 C 134.316406 22.738281 137.066406 22.230469 139.824219 21.742188 C 140.960938 21.613281 142.09375 21.480469 143.226562 21.355469 C 157.96875 19.675781 172.75 18.273438 187.554688 17.167969 C 199.230469 17.058594 210.886719 17.324219 222.472656 17.96875 C 223.640625 18.035156 223.574219 17.117188 222.558594 17.050781 C 216.117188 16.617188 209.667969 16.3125 203.210938 16.125 C 218.800781 15.203125 234.40625 14.648438 249.976562 14.535156 C 255.632812 15.011719 261.277344 15.53125 266.910156 16.085938 Z M 282.953125 15.683594 C 280.011719 15.351562 277.0625 15.035156 274.105469 14.726562 C 277.03125 14.792969 279.960938 14.863281 282.882812 14.964844 C 286.902344 15.105469 290.917969 15.285156 294.925781 15.496094 C 290.9375 15.539062 286.945312 15.605469 282.953125 15.683594 Z M 292.765625 16.824219 C 299.773438 16.742188 306.777344 16.71875 313.769531 16.753906 C 318.589844 17.140625 323.402344 17.5625 328.191406 18.054688 C 334.160156 18.671875 340.597656 19.992188 346.859375 20.800781 C 339.894531 20.960938 332.933594 21.117188 325.972656 21.265625 C 314.964844 19.652344 303.894531 18.164062 292.765625 16.824219 Z M 197.003906 20.917969 C 223.628906 19.109375 250.269531 17.738281 276.851562 17.109375 C 289.046875 18.417969 301.1875 19.894531 313.246094 21.53125 C 297.753906 21.855469 282.261719 22.167969 266.765625 22.46875 C 243.609375 21.292969 220.328125 20.753906 197.003906 20.917969 Z M 148.355469 24.644531 C 173.539062 23.378906 198.714844 22.957031 223.816406 23.296875 C 207.433594 23.601562 191.046875 23.886719 174.664062 24.179688 C 165.828125 24.339844 156.996094 24.503906 148.164062 24.660156 C 148.226562 24.65625 148.292969 24.652344 148.355469 24.644531 Z M 236.128906 11.0625 C 238.84375 11.089844 241.566406 11.128906 244.296875 11.175781 C 241.054688 11.199219 237.8125 11.234375 234.574219 11.296875 C 233.3125 11.210938 232.050781 11.117188 230.789062 11.035156 C 232.566406 11.042969 234.351562 11.046875 236.128906 11.0625 Z M 372.082031 17.152344 C 350.8125 15.4375 329.359375 13.847656 307.800781 12.734375 C 282.675781 10.09375 256.800781 9.265625 231.566406 9.101562 C 221.914062 9.039062 212.230469 9.199219 202.546875 9.605469 C 145.578125 7.511719 87.988281 10.414062 31.101562 20.765625 C 29.957031 20.972656 31.085938 21.839844 31.9375 21.691406 C 81.273438 13.199219 131.160156 10.15625 180.699219 10.984375 C 175.675781 11.414062 170.660156 11.917969 165.65625 12.519531 C 155.15625 13.78125 141.203125 14.859375 130.941406 19.046875 C 124.050781 19.804688 117.167969 20.699219 110.289062 21.730469 C 109.160156 21.898438 109.050781 22.8125 109.976562 23.128906 C 110.5 23.308594 111.039062 23.460938 111.570312 23.625 C 107.933594 24.25 104.324219 24.953125 100.757812 25.742188 C 81.457031 27.570312 62.199219 29.925781 43.027344 32.867188 C 40.789062 33.210938 41.390625 34.71875 43.171875 34.9375 C 54.695312 36.359375 66.457031 35.480469 78.230469 34.78125 C 82.199219 34.542969 86.164062 34.300781 90.132812 34.066406 C 90.519531 37.742188 107.699219 37.792969 110.914062 37.832031 C 130.632812 38.082031 150.65625 36.617188 170.433594 35.9375 C 191.003906 35.226562 211.566406 34.726562 232.125 34.339844 C 278.414062 33.464844 324.6875 33.152344 370.855469 33.667969 C 372.421875 33.683594 373.597656 32.339844 371.644531 32.082031 C 358.476562 30.347656 345.226562 28.796875 331.914062 27.441406 C 342.574219 27.90625 353.207031 28.523438 363.808594 29.324219 C 365.800781 29.472656 367.421875 27.960938 364.984375 27.535156 C 354.9375 25.785156 344.820312 24.121094 334.648438 22.5625 C 339.0625 22.453125 343.480469 22.339844 347.894531 22.230469 C 350.539062 22.1875 353.183594 22.136719 355.828125 22.09375 C 356.03125 22.089844 356.207031 22.058594 356.363281 22.019531 C 357.125 21.996094 357.878906 21.980469 358.640625 21.960938 C 359.714844 21.933594 359.480469 21.054688 358.660156 20.921875 C 357.308594 20.710938 355.953125 20.519531 354.601562 20.316406 C 349.542969 19.148438 344.40625 18.101562 339.207031 17.15625 C 350.027344 17.457031 360.828125 17.910156 371.609375 18.5625 C 373.355469 18.664062 373.878906 17.296875 372.082031 17.152344 " fill-opacity="1" fill-rule="nonzero"/></g></g></g></g></svg>