<svg xmlns="http://www.w3.org/2000/svg" xmlns:xlink="http://www.w3.org/1999/xlink" width="562" zoomAndPan="magnify" viewBox="0 0 421.5 48.75" height="65" preserveAspectRatio="xMidYMid meet" version="1.0"><defs><clipPath id="13374b43fd"><path d="M 19 10.523438 L 28 10.523438 L 28 28 L 19 28 Z M 19 10.523438 " clip-rule="nonzero"/></clipPath><clipPath id="1dc29c103e"><path d="M 29 10.523438 L 402 10.523438 L 402 38 L 29 38 Z M 29 10.523438 " clip-rule="nonzero"/></clipPath></defs><g clip-path="url(#13374b43fd)"><path fill="#000000" d="M 27.425781 26.382812 C 25.878906 21.019531 23.527344 15.992188 20.355469 11.308594 C 19.941406 10.703125 18.945312 10.953125 19.414062 11.683594 C 22.335938 16.230469 24.445312 21.050781 25.765625 26.226562 C 25.976562 27.046875 27.730469 27.441406 27.425781 26.382812 " fill-opacity="1" fill-rule="nonzero"/></g><g clip-path="url(#1dc29c103e)"><path fill="#000000" d="M 400.550781 30.855469 C 399.167969 30.871094 397.785156 30.875 396.402344 30.882812 C 395.792969 28.390625 395.308594 25.886719 395.140625 23.226562 C 395.105469 22.652344 393.773438 22.117188 393.796875 22.871094 C 393.878906 25.523438 394.121094 28.246094 394.664062 30.894531 C 392.730469 30.910156 390.800781 30.925781 388.867188 30.9375 C 388.570312 30.472656 388.273438 30.019531 388.003906 29.585938 C 386.957031 27.902344 386.027344 26.039062 384.667969 24.5625 C 384.335938 24.207031 383.476562 24.207031 383.605469 24.839844 C 383.984375 26.683594 385.160156 28.5 385.976562 30.199219 C 386.09375 30.445312 386.214844 30.699219 386.335938 30.957031 C 383.417969 30.972656 380.5 31.007812 377.582031 31.019531 C 377.574219 31.003906 377.566406 30.988281 377.558594 30.972656 C 376.464844 28.820312 375.371094 26.667969 374.289062 24.507812 C 373.882812 23.703125 371.859375 23.488281 372.339844 24.6875 C 373.148438 26.707031 373.960938 28.726562 374.769531 30.746094 C 374.808594 30.839844 374.84375 30.933594 374.878906 31.027344 C 370.777344 31.039062 366.679688 31.054688 362.582031 31.050781 C 362.457031 30.75 362.332031 30.441406 362.222656 30.140625 C 361.371094 27.832031 360.519531 25.523438 359.675781 23.210938 C 359.367188 22.363281 357.480469 21.808594 357.777344 23.105469 C 358.347656 25.609375 358.90625 28.113281 359.457031 30.621094 C 359.488281 30.765625 359.515625 30.90625 359.542969 31.046875 C 355.863281 31.042969 352.1875 31.039062 348.507812 31.027344 C 348.269531 30.515625 348.015625 30.007812 347.800781 29.503906 C 346.761719 27.042969 345.753906 24.566406 344.746094 22.09375 C 344.421875 21.304688 342.101562 20.511719 342.390625 21.859375 C 342.941406 24.410156 343.476562 26.964844 344.023438 29.515625 C 344.132812 30.039062 344.226562 30.53125 344.324219 31.007812 C 341.386719 30.996094 338.449219 30.972656 335.511719 30.949219 C 334.980469 30.148438 334.449219 29.355469 334.039062 28.554688 C 332.628906 25.808594 331.613281 22.925781 330.867188 19.957031 C 330.648438 19.082031 328.464844 18.414062 328.597656 19.699219 C 328.929688 22.902344 329.480469 27.289062 330.992188 30.921875 C 327.085938 30.890625 323.179688 30.851562 319.269531 30.808594 C 318.769531 29.710938 318.074219 28.648438 317.578125 27.628906 C 316.304688 25.019531 315.007812 22.425781 313.746094 19.8125 C 313.390625 19.074219 311.578125 18.78125 311.945312 19.929688 C 312.769531 22.53125 313.578125 25.136719 314.386719 27.742188 C 314.703125 28.761719 314.953125 29.789062 315.277344 30.765625 C 311.125 30.71875 306.972656 30.667969 302.820312 30.609375 C 302.421875 29.765625 301.996094 28.933594 301.625 28.105469 C 300.5625 25.722656 299.507812 23.339844 298.460938 20.953125 C 298.191406 20.332031 296.648438 20.011719 296.949219 20.972656 C 297.710938 23.375 298.46875 25.773438 299.222656 28.179688 C 299.46875 28.964844 299.6875 29.769531 299.921875 30.570312 C 295.972656 30.511719 292.019531 30.453125 288.066406 30.386719 C 287.582031 28.839844 286.542969 27.359375 285.84375 25.929688 C 284.609375 23.417969 283.386719 20.898438 282.164062 18.382812 C 281.675781 17.378906 279.261719 16.851562 279.789062 18.4375 C 280.652344 21.035156 281.503906 23.636719 282.34375 26.238281 C 282.777344 27.578125 283.066406 29.011719 283.609375 30.308594 C 280.011719 30.246094 276.410156 30.183594 272.808594 30.117188 C 271.769531 28.242188 269.980469 26.464844 268.957031 24.894531 C 266.964844 21.828125 265.40625 18.648438 264.273438 15.210938 C 264.015625 14.433594 261.925781 13.664062 262.085938 14.9375 C 262.640625 19.359375 263.941406 25.757812 267.160156 30 C 263.714844 29.933594 260.273438 29.867188 256.832031 29.789062 C 256.101562 27.476562 254.527344 25.460938 253.152344 23.445312 C 251.367188 20.824219 249.632812 18.171875 247.894531 15.523438 C 247.375 14.726562 245.699219 14.585938 246.25 15.824219 C 247.347656 18.285156 248.417969 20.757812 249.464844 23.234375 C 250.386719 25.417969 251.140625 27.734375 252.53125 29.695312 C 247.230469 29.582031 241.933594 29.460938 236.632812 29.332031 C 236.480469 29.023438 236.332031 28.710938 236.191406 28.402344 C 235.039062 25.882812 233.847656 23.378906 232.699219 20.855469 C 232.371094 20.140625 230.632812 19.84375 230.96875 20.949219 C 231.742188 23.527344 232.316406 26.476562 233.207031 29.246094 C 229.359375 29.152344 225.511719 29.0625 221.664062 28.960938 C 220.375 26.785156 219.007812 24.648438 217.859375 22.578125 C 217.472656 21.882812 216.015625 21.757812 216.484375 22.757812 C 217.414062 24.734375 218.269531 26.824219 219.179688 28.898438 C 214.851562 28.789062 210.527344 28.671875 206.203125 28.558594 C 206.027344 28.226562 205.851562 27.890625 205.679688 27.558594 C 204.089844 24.433594 202.511719 21.300781 200.929688 18.167969 C 200.503906 17.316406 198.863281 17.28125 199.355469 18.441406 C 200.691406 21.582031 201.84375 25.136719 203.300781 28.480469 C 199.585938 28.382812 195.867188 28.28125 192.15625 28.179688 C 191.269531 26.058594 190.664062 23.863281 190.285156 21.605469 C 190.164062 20.867188 188.410156 20.210938 188.4375 21.269531 C 188.492188 23.316406 188.699219 25.734375 189.222656 28.097656 C 186.160156 28.011719 183.09375 27.929688 180.027344 27.839844 C 178.402344 25.609375 177.257812 23.132812 176.53125 20.488281 C 176.300781 19.65625 174.152344 18.988281 174.347656 20.210938 C 174.699219 22.441406 175.503906 25.171875 176.753906 27.75 C 173.128906 27.644531 169.507812 27.546875 165.886719 27.441406 C 165.683594 26.972656 165.480469 26.511719 165.300781 26.054688 C 164.363281 23.671875 163.429688 21.285156 162.496094 18.902344 C 162.105469 17.898438 159.890625 17.414062 160.28125 18.898438 C 160.914062 21.308594 161.53125 23.730469 162.148438 26.144531 C 162.25 26.539062 162.34375 26.941406 162.441406 27.34375 C 159.566406 27.261719 156.695312 27.179688 153.820312 27.097656 C 153.253906 26.566406 152.699219 26.023438 152.191406 25.433594 C 150.582031 23.558594 149.328125 21.445312 148.292969 19.242188 C 147.921875 18.453125 145.984375 18.226562 146.414062 19.390625 C 147.394531 22.035156 148.707031 24.511719 150.34375 26.847656 C 150.382812 26.898438 150.421875 26.953125 150.457031 27.003906 C 146.53125 26.890625 142.609375 26.777344 138.683594 26.667969 C 138.15625 26.097656 137.640625 25.539062 137.21875 24.972656 C 135.246094 22.332031 133.585938 19.527344 132.140625 16.601562 C 131.527344 15.367188 128.585938 15.148438 129.386719 16.855469 C 130.742188 19.742188 132.316406 22.511719 134.148438 25.160156 C 134.464844 25.617188 134.792969 26.09375 135.121094 26.566406 C 130.664062 26.4375 126.210938 26.3125 121.757812 26.1875 C 121.359375 25.6875 120.960938 25.1875 120.621094 24.675781 C 119.433594 22.855469 118.464844 20.929688 117.664062 18.929688 C 117.296875 18.019531 115.171875 17.515625 115.605469 18.875 C 116.316406 21.109375 117.269531 23.796875 118.648438 26.101562 C 116.316406 26.035156 113.984375 25.96875 111.652344 25.90625 C 110.421875 25.871094 109.191406 25.84375 107.960938 25.8125 C 107.707031 25.410156 107.453125 25.011719 107.214844 24.617188 C 105.820312 22.28125 104.425781 19.941406 103.042969 17.597656 C 102.519531 16.707031 100.171875 16.566406 100.8125 17.921875 C 101.875 20.15625 102.933594 22.390625 103.988281 24.625 C 104.164062 24.988281 104.328125 25.355469 104.492188 25.71875 C 101.140625 25.628906 97.789062 25.546875 94.433594 25.460938 C 93.355469 24.003906 92.011719 22.652344 90.9375 21.324219 C 88.894531 18.808594 86.855469 16.289062 84.816406 13.769531 C 84.125 12.90625 82.234375 13.3125 83.042969 14.507812 C 84.847656 17.183594 86.660156 19.851562 88.445312 22.535156 C 89.054688 23.457031 89.636719 24.417969 90.25 25.351562 C 86.574219 25.257812 82.894531 25.160156 79.21875 25.066406 C 78.875 24.496094 78.511719 23.9375 78.21875 23.402344 C 77.359375 21.832031 76.5 20.265625 75.648438 18.695312 C 75.195312 17.867188 73.5625 17.804688 74.070312 18.964844 C 74.847656 20.75 75.621094 22.53125 76.390625 24.316406 C 76.484375 24.546875 76.578125 24.769531 76.667969 25 C 72.242188 24.890625 67.816406 24.78125 63.386719 24.675781 C 63.332031 24.578125 63.273438 24.480469 63.222656 24.382812 C 61.832031 21.839844 60.453125 19.285156 59.074219 16.730469 C 58.695312 16.03125 57.273438 15.890625 57.699219 16.914062 C 58.765625 19.472656 59.820312 22.035156 60.867188 24.601562 C 60.867188 24.605469 60.867188 24.609375 60.867188 24.613281 C 56.914062 24.519531 52.957031 24.425781 49 24.332031 C 48.882812 24.109375 48.773438 23.886719 48.667969 23.671875 C 47.0625 20.3125 45.523438 16.929688 44.007812 13.539062 C 43.734375 12.925781 42.210938 12.582031 42.496094 13.558594 C 43.496094 16.972656 44.492188 20.386719 45.402344 23.828125 C 45.441406 23.96875 45.480469 24.109375 45.515625 24.25 C 43.089844 24.195312 40.671875 24.136719 38.25 24.082031 C 37.625 22.988281 36.96875 21.910156 36.402344 20.84375 C 34.71875 17.675781 33.007812 14.519531 31.300781 11.363281 C 30.921875 10.660156 29.484375 10.527344 29.925781 11.542969 C 31.308594 14.710938 32.671875 17.886719 34.078125 21.046875 C 34.507812 22.019531 34.90625 23.015625 35.316406 24.011719 C 33.476562 23.96875 31.632812 23.925781 29.792969 23.882812 C 29.082031 23.863281 29.640625 24.925781 30.207031 24.945312 C 32.070312 25.003906 33.933594 25.066406 35.796875 25.125 C 36.527344 26.78125 37.355469 28.386719 38.519531 29.785156 C 38.945312 30.296875 40.644531 30.609375 40.472656 29.550781 C 40.234375 28.054688 39.617188 26.621094 38.878906 25.226562 C 41.1875 25.300781 43.503906 25.371094 45.816406 25.445312 C 46.4375 27.929688 47.125 30.394531 49.179688 32.117188 C 49.671875 32.53125 50.804688 33.003906 51.109375 32.121094 C 51.859375 29.96875 50.757812 27.671875 49.648438 25.570312 C 53.5625 25.695312 57.476562 25.824219 61.390625 25.945312 C 62.175781 28.007812 62.945312 30.070312 64.507812 31.726562 C 64.96875 32.210938 66.441406 32.5625 66.394531 31.519531 C 66.300781 29.570312 65.234375 27.773438 64.1875 26.035156 C 68.554688 26.175781 72.921875 26.3125 77.289062 26.449219 C 77.601562 27.109375 77.980469 27.734375 78.527344 28.28125 C 78.988281 28.730469 80.359375 29.128906 80.347656 28.109375 C 80.34375 27.574219 80.195312 27.046875 79.980469 26.535156 C 83.761719 26.652344 87.546875 26.773438 91.332031 26.890625 C 92.011719 27.777344 92.765625 28.605469 93.671875 29.296875 C 94.320312 29.792969 96.480469 30.128906 96.128906 28.734375 C 95.976562 28.140625 95.726562 27.574219 95.433594 27.019531 C 98.703125 27.121094 101.976562 27.222656 105.246094 27.320312 C 105.867188 28.582031 106.582031 29.785156 107.632812 30.804688 C 108.285156 31.4375 110.101562 31.589844 109.964844 30.335938 C 109.855469 29.308594 109.453125 28.355469 108.945312 27.433594 C 112.5625 27.542969 116.179688 27.648438 119.796875 27.757812 C 120.375 28.496094 121.007812 29.167969 121.722656 29.710938 C 122.453125 30.269531 123.941406 29.941406 123.507812 28.867188 C 123.363281 28.515625 123.175781 28.179688 122.972656 27.851562 C 127.433594 27.984375 131.894531 28.125 136.355469 28.253906 C 137.5 29.730469 138.800781 31.089844 140.449219 31.96875 C 141.195312 32.367188 142.082031 31.871094 141.832031 31.058594 C 141.542969 30.101562 140.929688 29.21875 140.21875 28.367188 C 144.039062 28.476562 147.863281 28.578125 151.683594 28.683594 C 153.066406 30.46875 154.75 32.15625 156.988281 32.640625 C 157.519531 32.757812 158.242188 32.472656 158.144531 31.855469 C 157.984375 30.816406 157.542969 30.402344 156.746094 29.699219 C 156.40625 29.394531 156.058594 29.097656 155.714844 28.796875 C 158.09375 28.863281 160.472656 28.929688 162.855469 28.996094 C 163.25 30.4375 163.761719 31.835938 164.703125 33.042969 C 165.164062 33.640625 167.148438 34.394531 167.292969 33.132812 C 167.445312 31.773438 167.074219 30.421875 166.570312 29.101562 C 170.253906 29.199219 173.941406 29.300781 177.625 29.398438 C 179.488281 32.582031 182.089844 35.265625 185.464844 35.996094 C 186.300781 36.175781 186.835938 35.566406 186.601562 34.839844 C 185.902344 32.691406 182.894531 31.199219 181.351562 29.492188 C 184.113281 29.5625 186.878906 29.625 189.640625 29.699219 C 190.386719 32.203125 191.546875 34.527344 193.363281 36.128906 C 194.0625 36.746094 196.300781 36.867188 195.929688 35.464844 C 195.398438 33.441406 193.914062 31.667969 192.886719 29.777344 C 196.597656 29.867188 200.308594 29.964844 204.023438 30.054688 C 204.871094 31.820312 205.820312 33.503906 206.976562 34.988281 C 207.324219 35.433594 208.878906 35.800781 208.726562 34.84375 C 208.464844 33.175781 207.789062 31.636719 207.023438 30.128906 C 211.296875 30.230469 215.574219 30.324219 219.851562 30.414062 C 220.964844 32.851562 222.199219 35.226562 223.769531 37.316406 C 224.21875 37.914062 225.71875 38.019531 225.421875 36.984375 C 224.796875 34.785156 223.730469 32.609375 222.535156 30.472656 C 226.265625 30.558594 229.996094 30.636719 233.726562 30.714844 C 234.261719 32.117188 234.898438 33.457031 235.746094 34.628906 C 236.332031 35.4375 238.410156 35.878906 238.335938 34.425781 C 238.273438 33.140625 237.84375 31.953125 237.320312 30.789062 C 242.945312 30.902344 248.570312 31.011719 254.195312 31.117188 C 255.027344 31.429688 256.039062 31.523438 256.578125 31.15625 C 260.492188 31.226562 264.410156 31.289062 268.328125 31.355469 C 269.359375 32.390625 270.546875 33.234375 271.929688 33.761719 C 272.484375 33.972656 273.523438 33.863281 273.59375 33.140625 C 273.648438 32.574219 273.570312 32.003906 273.394531 31.441406 C 277.035156 31.5 280.675781 31.570312 284.316406 31.621094 C 284.582031 32.015625 284.882812 32.390625 285.257812 32.730469 C 285.988281 33.375 288.070312 34.09375 288.296875 32.59375 C 288.34375 32.28125 288.351562 31.976562 288.332031 31.667969 C 292.328125 31.726562 296.320312 31.765625 300.316406 31.8125 C 300.652344 32.800781 301.050781 33.765625 301.621094 34.65625 C 302.109375 35.425781 304.324219 35.902344 304.136719 34.492188 C 304.015625 33.589844 303.730469 32.714844 303.375 31.847656 C 307.503906 31.898438 311.628906 31.957031 315.757812 31.996094 C 316.164062 32.878906 316.703125 33.699219 317.527344 34.394531 C 318.117188 34.890625 319.523438 35.269531 319.792969 34.246094 C 319.984375 33.503906 319.914062 32.769531 319.714844 32.039062 C 323.660156 32.078125 327.605469 32.097656 331.550781 32.121094 C 332.386719 33.769531 333.457031 35.203125 334.851562 36.1875 C 335.464844 36.617188 337.617188 37.085938 337.5625 35.761719 C 337.511719 34.496094 336.957031 33.308594 336.269531 32.15625 C 339.054688 32.171875 341.839844 32.183594 344.625 32.191406 C 344.976562 33.339844 345.546875 34.324219 346.847656 35.132812 C 347.359375 35.449219 348.222656 35.585938 348.632812 35.039062 C 349.320312 34.121094 349.277344 33.167969 348.972656 32.199219 C 352.578125 32.210938 356.179688 32.226562 359.785156 32.226562 C 360.113281 33.835938 360.480469 35.382812 361.449219 36.800781 C 361.894531 37.453125 364.023438 38.121094 364.113281 36.859375 C 364.226562 35.285156 363.671875 33.730469 363.054688 32.21875 C 367.140625 32.214844 371.226562 32.199219 375.308594 32.183594 C 375.855469 33.691406 376.425781 35.1875 377.589844 36.339844 C 378.195312 36.9375 379.515625 37.128906 379.605469 36.066406 C 379.722656 34.734375 378.957031 33.410156 378.234375 32.175781 C 381.121094 32.160156 384.015625 32.125 386.90625 32.105469 C 387.375 33.011719 387.90625 33.886719 388.625 34.585938 C 389.011719 34.960938 390.484375 35.457031 390.375 34.441406 C 390.292969 33.644531 389.960938 32.851562 389.542969 32.082031 C 391.335938 32.066406 393.132812 32.054688 394.925781 32.039062 C 395.277344 33.492188 395.726562 34.914062 396.3125 36.28125 C 396.578125 36.902344 398.089844 37.238281 397.824219 36.261719 C 397.433594 34.828125 397.046875 33.425781 396.6875 32.027344 C 398.128906 32.015625 399.566406 32.007812 401.007812 31.988281 C 401.769531 31.980469 401.160156 30.847656 400.550781 30.855469 " fill-opacity="1" fill-rule="nonzero"/></g></svg>