<svg xmlns="http://www.w3.org/2000/svg" xmlns:xlink="http://www.w3.org/1999/xlink" width="562" zoomAndPan="magnify" viewBox="0 0 421.5 48.75" height="65" preserveAspectRatio="xMidYMid meet" version="1.0"><defs><clipPath id="5fbed6f5da"><path d="M 19 4 L 401 4 L 401 43.40625 L 19 43.40625 Z M 19 4 " clip-rule="nonzero"/></clipPath></defs><g clip-path="url(#5fbed6f5da)"><path fill="#000000" d="M 294.3125 7.160156 C 295.601562 7.222656 296.886719 7.304688 298.171875 7.382812 C 276.660156 7.375 255.136719 7.550781 233.625 8.074219 C 253.84375 6.527344 274.132812 6.183594 294.3125 7.160156 Z M 400.546875 38.46875 C 352.566406 33.191406 304.261719 30.546875 255.984375 30.675781 C 249.402344 30.691406 242.816406 30.761719 236.230469 30.875 C 277.773438 26.0625 319.921875 26.34375 361.648438 26.296875 C 362.644531 26.296875 364.953125 22.679688 364.046875 22.425781 C 350.351562 18.636719 336.089844 19.113281 322.019531 19.371094 C 307.109375 19.640625 292.195312 19.914062 277.28125 20.1875 C 247.40625 20.734375 217.515625 21.230469 187.648438 22.054688 C 172.328125 22.476562 157.007812 22.90625 141.6875 23.289062 C 158.449219 19.03125 175.460938 15.527344 192.625 12.851562 C 218.109375 11.851562 243.625 11.441406 269.128906 11.328125 C 292.226562 11.226562 315.324219 11.410156 338.417969 11.679688 C 339.597656 11.695312 341.632812 7.691406 340.382812 7.578125 C 299.03125 3.828125 256.945312 3.984375 215.535156 8.597656 C 174.59375 9.992188 133.722656 12.820312 93.105469 18.246094 C 81.832031 19.753906 70.582031 21.445312 59.367188 23.316406 C 46.332031 25.488281 33.390625 28.332031 20.347656 30.414062 C 18.71875 30.671875 21.378906 31.597656 21.863281 31.605469 C 25.320312 31.648438 28.765625 31.835938 32.226562 31.792969 C 32.785156 31.789062 31.820312 29.699219 31.148438 29.722656 C 30.8125 29.730469 30.476562 29.75 30.140625 29.761719 C 38.179688 28.054688 46.394531 26.871094 54.460938 25.585938 C 64.480469 23.992188 74.523438 22.59375 84.589844 21.351562 C 104.757812 18.871094 124.996094 16.917969 145.265625 15.453125 C 157.625 14.558594 170.003906 13.851562 182.386719 13.285156 C 181.132812 13.5 179.875 13.71875 178.617188 13.941406 C 164.0625 16.554688 149.648438 19.800781 135.351562 23.5625 C 134.40625 23.8125 132.644531 25 134.699219 24.988281 C 194.351562 24.523438 253.996094 24.027344 313.640625 23.210938 C 314.402344 23.199219 315.160156 23.1875 315.917969 23.171875 C 282.136719 24.144531 248.445312 26.265625 214.929688 31.398438 C 214.070312 31.53125 210.898438 34.261719 212.449219 34.234375 C 261.019531 33.375 309.679688 35.027344 358.082031 39.140625 C 361.703125 39.449219 365.316406 39.773438 368.933594 40.109375 C 366.714844 40.253906 364.496094 40.394531 362.273438 40.515625 C 361.296875 40.566406 358.785156 41.875 361.085938 41.972656 C 373.75 42.507812 386.410156 43.371094 399.097656 43.21875 C 400.460938 43.203125 401.636719 38.589844 400.546875 38.46875 " fill-opacity="1" fill-rule="nonzero"/></g></svg>