<svg xmlns="http://www.w3.org/2000/svg" xmlns:xlink="http://www.w3.org/1999/xlink" width="562" zoomAndPan="magnify" viewBox="0 0 421.5 48.75" height="65" preserveAspectRatio="xMidYMid meet" version="1.0"><defs><clipPath id="565aef3928"><path d="M 3.25 6 L 417 6 L 417 42.90625 L 3.25 42.90625 Z M 3.25 6 " clip-rule="nonzero"/></clipPath></defs><g clip-path="url(#565aef3928)"><path fill="#000000" d="M 245.238281 33.476562 C 214.0625 34.382812 182.886719 35.289062 151.714844 36.191406 C 145.039062 36.382812 138.355469 36.507812 131.679688 36.757812 C 146.121094 35.605469 160.582031 34.734375 175.050781 34.148438 C 198.433594 33.203125 221.84375 32.976562 245.238281 33.476562 Z M 415.632812 8.257812 C 362.542969 6.117188 309.441406 5.714844 256.335938 7.246094 C 203.074219 8.777344 149.738281 11.761719 96.664062 17.089844 C 65.863281 20.179688 35.128906 23.605469 4.496094 28.296875 C 3.226562 28.492188 4.300781 29.792969 5.144531 29.722656 C 31.832031 27.40625 58.484375 24.554688 85.1875 22.378906 C 111.609375 20.234375 138.054688 18.386719 164.515625 16.972656 C 215.398438 14.261719 266.355469 13.152344 317.296875 13.507812 C 307.421875 14.183594 297.546875 14.886719 287.671875 15.609375 C 245.070312 18.734375 202.507812 22.617188 160.015625 27.234375 C 136.15625 29.828125 112.320312 32.664062 88.503906 35.734375 C 86.441406 36 84.078125 41.589844 86.945312 41.242188 C 92.492188 40.570312 98.046875 39.941406 103.605469 39.359375 C 103.328125 39.636719 103.085938 39.960938 102.902344 40.320312 C 102.523438 41.070312 102.320312 42.6875 103.53125 42.652344 C 110.324219 42.449219 117.171875 42.8125 123.96875 42.75 C 130.8125 42.6875 137.648438 42.402344 144.488281 42.191406 C 158.132812 41.777344 171.78125 41.359375 185.429688 40.945312 C 213.167969 40.097656 240.898438 39.257812 268.636719 38.414062 C 283.921875 37.953125 299.203125 37.488281 314.492188 37.027344 C 316.296875 36.972656 318.828125 31.609375 316.464844 31.417969 C 286.933594 29.046875 257.328125 27.816406 227.714844 27.726562 C 222.671875 27.710938 217.625 27.734375 212.578125 27.785156 C 213.261719 27.726562 213.945312 27.660156 214.625 27.597656 C 257.214844 23.828125 299.847656 20.84375 342.53125 18.710938 C 366.492188 17.515625 390.46875 16.601562 414.449219 15.734375 C 416.824219 15.648438 418.097656 8.359375 415.632812 8.257812 " fill-opacity="1" fill-rule="nonzero"/></g></svg>