<svg xmlns="http://www.w3.org/2000/svg" xmlns:xlink="http://www.w3.org/1999/xlink" width="562" zoomAndPan="magnify" viewBox="0 0 421.5 48.75" height="65" preserveAspectRatio="xMidYMid meet" version="1.0"><defs><clipPath id="220d15b743"><path d="M 6 1 L 417 1 L 417 44.769531 L 6 44.769531 Z M 6 1 " clip-rule="nonzero"/></clipPath></defs><g clip-path="url(#220d15b743)"><path fill="#000000" d="M 243.6875 28.765625 C 243.558594 28.464844 243.386719 27.953125 243.214844 27.148438 C 243.332031 27.683594 243.507812 28.222656 243.6875 28.765625 Z M 411.179688 16.210938 C 412.765625 17.277344 414.351562 18.34375 415.9375 19.410156 C 415.140625 18.703125 414.3125 18.046875 413.445312 17.433594 C 412.324219 16.632812 411.15625 15.925781 409.945312 15.277344 C 409.796875 15.199219 409.648438 15.125 409.503906 15.050781 C 409.40625 14.992188 409.304688 14.9375 409.203125 14.886719 L 409.246094 14.910156 C 408.0625 14.296875 406.867188 13.707031 405.652344 13.160156 C 403.410156 12.148438 401.105469 11.292969 398.757812 10.585938 C 394.277344 9.242188 389.660156 8.421875 385.019531 7.875 C 374.542969 6.636719 364 6.550781 353.460938 6.351562 C 331.71875 5.9375 309.867188 5.914062 288.269531 8.816406 C 282.449219 9.597656 276.664062 10.742188 270.953125 12.121094 C 267.972656 12.839844 265.023438 13.640625 262.082031 14.511719 C 260.320312 15.035156 258.542969 15.558594 256.726562 15.585938 C 256.566406 14.941406 256.402344 14.292969 256.191406 13.660156 C 254.792969 9.460938 252.664062 5.554688 248.800781 3.195312 C 243.5625 0.00390625 236.585938 1.902344 231.101562 3.136719 C 220.1875 5.597656 209.890625 10.457031 198.804688 12.167969 C 193.53125 12.746094 188.1875 12.488281 183.289062 10.308594 C 180.703125 8.871094 178.332031 7.09375 175.800781 5.5625 C 172.0625 3.304688 168.785156 2.03125 164.386719 1.894531 C 157.289062 1.679688 149.871094 4.074219 143.082031 5.949219 C 135.671875 7.992188 128.359375 10.441406 121.179688 13.199219 C 117.730469 14.523438 114.289062 15.890625 110.953125 17.488281 C 107.875 18.960938 104.875 20.625 101.714844 21.914062 C 100.964844 22.21875 100.207031 22.480469 99.441406 22.75 C 99.296875 22.800781 99.175781 22.839844 99.078125 22.875 C 98.71875 22.953125 98.355469 23.027344 97.992188 23.085938 C 97.351562 23.1875 96.703125 23.253906 96.050781 23.265625 C 95.621094 23.28125 95.203125 23.242188 94.773438 23.230469 C 94.648438 23.214844 94.523438 23.203125 94.398438 23.191406 C 94.347656 23.171875 94.285156 23.15625 94.207031 23.136719 C 92.75 22.664062 91.507812 21.953125 90.300781 21.011719 C 90.285156 20.996094 90.273438 20.992188 90.257812 20.976562 C 90.222656 20.941406 90.175781 20.902344 90.109375 20.84375 C 89.875 20.628906 89.636719 20.410156 89.398438 20.199219 C 88.363281 19.265625 87.332031 18.316406 86.242188 17.445312 C 82.621094 14.546875 77.859375 13.144531 73.273438 12.929688 C 63.675781 12.476562 54.289062 16.074219 45.207031 18.675781 C 42.738281 19.382812 40.25 20.042969 37.730469 20.546875 C 35.429688 21.003906 33.1875 21.714844 30.855469 22.015625 C 29.871094 22.144531 28.882812 22.21875 27.894531 22.210938 C 27.347656 22.210938 26.8125 22.1875 26.269531 22.136719 C 25.949219 22.101562 25.515625 22.027344 25.386719 22.003906 C 23.175781 21.53125 21.324219 21.023438 19.375 19.671875 C 16.847656 17.917969 12.734375 19.804688 10.582031 21.242188 C 8.957031 22.328125 5.035156 25.714844 6.789062 28.09375 C 9.597656 31.90625 13.378906 34.9375 17.886719 36.390625 C 22.035156 37.726562 26.882812 38.332031 31.199219 37.796875 C 39.855469 36.722656 48.203125 33.992188 56.832031 32.761719 C 56.976562 32.742188 57.585938 32.671875 57.824219 32.636719 C 58.132812 32.609375 58.46875 32.578125 58.574219 32.574219 C 59.621094 32.488281 60.679688 32.4375 61.738281 32.429688 C 63.707031 32.414062 65.679688 32.542969 67.617188 32.890625 C 67.910156 32.941406 68.199219 33.007812 68.484375 33.070312 C 68.488281 33.070312 68.609375 33.085938 68.800781 33.136719 C 68.894531 33.15625 68.988281 33.179688 69.082031 33.195312 C 69.011719 33.183594 68.949219 33.171875 68.890625 33.160156 C 68.976562 33.183594 69.066406 33.210938 69.164062 33.242188 C 70.109375 33.550781 71.035156 33.921875 71.925781 34.359375 C 72.773438 34.777344 73.59375 35.253906 74.375 35.78125 C 74.8125 36.074219 75.234375 36.386719 75.644531 36.710938 C 75.617188 36.6875 75.96875 36.992188 76.109375 37.105469 C 76.273438 37.269531 76.65625 37.628906 76.722656 37.695312 C 79.160156 40.015625 81.691406 42.589844 84.96875 43.636719 C 88.609375 44.789062 92.257812 44.691406 95.921875 43.792969 C 102.9375 42.074219 109.550781 38.847656 116.28125 36.257812 C 123.195312 33.597656 130.257812 31.375 137.417969 29.496094 C 141.195312 28.511719 144.996094 27.621094 148.816406 26.835938 C 152.382812 26.101562 155.980469 25.347656 159.632812 25.304688 C 162.019531 25.570312 164.1875 26.296875 166.324219 27.417969 C 171.519531 30.65625 176 34.558594 181.921875 36.632812 C 187.171875 38.472656 192.601562 38.773438 198.085938 38.105469 C 209.753906 36.695312 220.707031 32.398438 232.128906 29.875 C 235.773438 29.164062 239.652344 28.472656 243.332031 29.089844 C 243.511719 29.164062 243.6875 29.242188 243.863281 29.324219 C 243.910156 29.484375 243.960938 29.644531 244.003906 29.800781 C 244.675781 32.34375 245.542969 34.871094 246.9375 37.121094 C 248.621094 39.84375 250.964844 42.214844 254.125 43.03125 C 256.800781 43.722656 259.136719 43.652344 261.8125 43.050781 C 272.0625 40.738281 282.222656 38.726562 292.648438 37.40625 C 313.023438 34.824219 333.609375 34.769531 354.109375 35.152344 C 364.355469 35.339844 374.675781 35.332031 384.882812 36.351562 C 392.621094 37.292969 400.371094 38.996094 407.335938 42.609375 L 407.613281 42.785156 C 409.59375 44.003906 412.238281 42.246094 413.398438 40.804688 C 415.214844 38.546875 416.054688 34.746094 416.15625 31.953125 C 416.335938 26.824219 415.359375 19.84375 411.179688 16.210938 " fill-opacity="1" fill-rule="nonzero"/></g><path fill="#000000" d="M 68.484375 33.070312 C 68.480469 33.074219 68.601562 33.105469 68.890625 33.160156 C 68.859375 33.152344 68.832031 33.144531 68.800781 33.136719 C 68.695312 33.117188 68.589844 33.09375 68.484375 33.070312 " fill-opacity="1" fill-rule="nonzero"/></svg>